<?xml version="1.0" encoding="utf-8"?>
<!-- Generator: Adobe Illustrator 24.1.3, SVG Export Plug-In . SVG Version: 6.00 Build 0)  -->
<svg version="1.1" id="Layer_1" xmlns="http://www.w3.org/2000/svg" xmlns:xlink="http://www.w3.org/1999/xlink" x="0px" y="0px"
	 viewBox="0 0 354 130.9" style="enable-background:new 0 0 354 130.9;" xml:space="preserve">
<style type="text/css">
	.st0{fill:#0245C1;}
</style>
<g>
	<g>
		<g>
			<polygon points="169.8,45.3 143.5,8.1 128.1,8.1 154.2,45.3 			"/>
			<polygon points="196.2,45.3 222.6,8.1 207.1,8.1 180.6,45.3 			"/>
			<path d="M104.4,85.7c-7.3,15.1-22.7,25-41,25H29.9V20.3h33c18.4,0,33.9,9.9,41.4,25h14.5C110.6,23.2,89.3,8.1,63.2,8.1H16.8
				v114.8h45.9c26.3,0,47.8-15.1,56-37.2H104.4z"/>
			<path d="M312.2,62.7c13.3-2.8,21.3-12.5,21.3-25.9c0-18-14.1-28.7-37.2-28.7H248v37.2h13.1v-25h34.6c15.4,0,24.4,6.7,24.4,18.5
				c0,10.6-6.9,17.2-18.8,18.7v12.7c15.2,1.3,23.9,8.5,23.9,19.9c0,13.3-10.8,20.8-29.5,20.7h-34.6v-25H248V123h49
				c26.1,0,41.5-11.6,41.5-31.2C338.5,76,328.8,65.2,312.2,62.7z"/>
			<polygon points="151.7,85.7 125.2,122.9 140.6,122.9 167.1,85.7 			"/>
			<polygon points="183.3,85.7 210.1,122.9 225.8,122.9 199.5,85.7 			"/>
		</g>
	</g>
	<g>
		<g>
			<path class="st0" d="M64.3,52v26.9h-6.1V52H64.3z"/>
			<path class="st0" d="M81.2,52l13.1,17.3V52h5.8v26.9h-5.5l-13-17.3v17.3h-5.8V52H81.2z"/>
			<path class="st0" d="M131.2,52v5.2H123V79h-6.1V57.2h-8.2V52H131.2z"/>
			<path class="st0" d="M160.3,52v5h-14.4v5.8h13v5h-13v6h14.8v5h-20.9V52H160.3z"/>
			<path class="st0" d="M187.4,78.9l-4.3-7.7h-0.6h-5.6v7.7h-6.1V52h11.7c7,0,11,3.4,11,9.3c0,4.2-1.8,7.2-5,8.7l5.7,8.9H187.4z
				 M176.9,66.2h5.6c3.3,0,5.3-1.5,5.3-4.6c0-3-1.9-4.5-5.3-4.5h-5.6V66.2z"/>
			<path class="st0" d="M221.8,73.7h-12.5l-2.1,5.2H201L212.7,52h6.3l11.5,26.9H224L221.8,73.7z M219.9,68.8l-4.2-10.5l-4.3,10.5
				H219.9z"/>
			<path class="st0" d="M250.4,57.1c-4.6,0-8.2,3.6-8.2,8.3c0,4.7,3.6,8.3,8.2,8.3c2.4,0,5.1-1.2,7-3.2l3.6,3.9
				c-2.8,2.9-7,4.8-10.9,4.8c-8,0-14.1-6-14.1-13.8s6.2-13.6,14.3-13.6c3.9,0,8,1.7,10.6,4.5l-3.5,4.3
				C255.5,58.5,252.9,57.1,250.4,57.1z"/>
			<path class="st0" d="M289.8,52v5.2h-8.2V79h-6.1V57.2h-8.2V52H289.8z"/>
		</g>
	</g>
</g>
</svg>
