<?xml version="1.0" encoding="utf-8"?>
<!-- Generator: Adobe Illustrator 22.0.0, SVG Export Plug-In . SVG Version: 6.00 Build 0)  -->
<svg version="1.1" id="Layer_1" xmlns="http://www.w3.org/2000/svg" xmlns:xlink="http://www.w3.org/1999/xlink" x="0px" y="0px"
	 viewBox="0 0 518.6 186.3" style="enable-background:new 0 0 518.6 186.3;" xml:space="preserve">
<style type="text/css">
	.st0{fill:#E8222E;}
	.st1{fill:#FFFFFF;}
	.st2{fill:#78777A;}
</style>
<g>
	<g>
		<rect x="19.4" y="16" class="st0" width="154.4" height="154.3"/>
		<rect x="88.9" y="89.2" class="st1" width="9.2" height="8.6"/>
		<rect x="74.6" y="89.2" class="st1" width="9.2" height="8.6"/>
		<path class="st1" d="M67.1,104.4h-7.8v-3.3c0-3.2,1.1-4.3,4-4.3c1.2,0,2.6,0.1,3.8,0.2v-7.8c-1.8-0.1-3.7-0.3-5.5-0.3
			c-8.5,0-12.7,4.8-12.7,11.6v3.9h-6.3v7.3h6.3v30.7h10.5v-30.7h7.8V104.4z"/>
		<path class="st1" d="M92.5,127.7c0,2.4-0.3,8.8-8.5,8.8c-3.4,0-6.4-1-6.4-4.9c0-3.8,3-5,6.2-5.6c3.2-0.6,6.9-0.7,8.7-2.2V127.7z
			 M136.7,103.3c-5.3,0-9.2,3-11.5,6.3c-2.1-4.6-6.3-6.3-11.1-6.3c-5,0-9.3,2.4-12,6.5h0c-2.4-5.4-9.7-6.5-15.9-6.5
			c-8.5,0-17.3,3-17.9,12.7h10.5c0.4-4.1,2.9-5.7,6.9-5.7c3.7,0,6.8,0.7,6.8,5.1c0.4,8.5-25.2-0.7-25.3,16.6c0,7.8,5.7,11.4,13,11.4
			c4.7,0,9.5-1.3,12.8-4.7v3.7h10v-22.1c0-7.4,5-8.8,7.1-8.8c6.6,0,6.3,5.1,6.3,9.5v21.3h10.5v-21.2c0-4.7,1.1-9.6,7-9.6
			c6,0,6.4,4.2,6.4,9.3v21.6h10.4V117C150.6,107.1,144.8,103.3,136.7,103.3"/>
		<path class="st1" d="M146.5,92.7c0.7,0,1.4,0,1.4-0.8c0-0.6-0.5-0.8-1.1-0.8h-1.1v1.6H146.5z M145.7,95.3h-0.6v-4.7h1.8
			c1.1,0,1.5,0.5,1.5,1.3c0,0.8-0.5,1.2-1.2,1.3l1.4,2.1H148l-1.3-2.1h-1V95.3z M143.2,92.9c0,1.9,1.4,3.5,3.4,3.5
			c2,0,3.4-1.5,3.4-3.5c0-1.9-1.5-3.5-3.4-3.5C144.6,89.5,143.2,91,143.2,92.9 M150.6,92.9c0,2.3-1.8,4-4.1,4c-2.3,0-4-1.8-4-4
			c0-2.3,1.8-4.1,4-4.1C148.9,88.9,150.6,90.7,150.6,92.9"/>
		<path class="st2" d="M218.2,90.4h-5.7c-0.3,0-0.4,0.1-0.4,0.3v28.2c2.1,1,4.4,1.2,7.4,1.2c6.6,0,10.5-3.4,10.5-14.3
			C229.9,95,224.9,90.4,218.2,90.4 M219.4,121.3c-3.1,0-5.4-0.4-7.4-0.9v20.5c0,0.2,0.1,0.3,0.4,0.3h6.3c0.1,0,0.1,1.2,0,1.2h-21.7
			c-0.2,0-0.2-1.2,0-1.2h6.3c0.2,0,0.4-0.1,0.4-0.3V90.7c0-0.2-0.1-0.3-0.4-0.3h-6.3c-0.2,0-0.2-1.2,0-1.2h21.1
			c12.9,0,19.9,7.5,19.9,16.7C238.1,114.9,230.6,121.3,219.4,121.3"/>
		<path class="st2" d="M263.6,119.4c-2.1,0-3.4-1.2-3.4-2.6c0-1.7,0.9-1.9,0.9-3.2c0-1.3-0.8-2-2-2c-2.3,0-4.2,1.6-5.6,7.1v22.2
			c0,0.2,0.2,0.3,0.5,0.3h4.2c0.1,0,0.1,1.2,0,1.2h-15.7c-0.1,0-0.1-1.2,0-1.2h4.1c0.4,0,0.5-0.1,0.5-0.3v-29c0-0.2-0.2-0.3-0.5-0.3
			h-4.1c-0.1,0-0.1-1.2,0-1.2h10.8c0.2,0,0.2,0.1,0.2,0.2v5c1.4-4.4,3.8-5.9,7.7-5.9c3.7,0,5.6,2.5,5.6,5.5
			C266.9,117.9,265.4,119.4,263.6,119.4"/>
		<path class="st2" d="M291.2,112.6c-1.4-1.3-3.2-1.6-5.6-1.6c-2.2,0-4.1,0.4-5.5,1.6c-2.5,2-3.6,6.4-3.6,13.8
			c0,8.5,1.1,11.8,3.6,13.8c1.4,1.3,3.3,1.6,5.5,1.6c2.3,0,4.1-0.4,5.6-1.6c2.5-2,3.7-5.3,3.7-13.8
			C294.9,119,293.7,114.6,291.2,112.6 M285.6,143.1c-8.6,0-15.7-7.5-15.7-16.7c0-9.2,7.1-16.7,15.7-16.7c8.8,0,15.9,7.5,15.9,16.7
			C301.5,135.6,294.4,143.1,285.6,143.1"/>
		<path class="st2" d="M327.7,112.6c-1.5-1.2-3.6-1.6-5.6-1.6c-2.7,0-5.9,1.4-7,3.9v22.2c1.4,3.2,5,4.8,7.8,4.8c2,0,3.3-0.4,4.8-1.7
			c2.3-2,3.5-6.4,3.5-13.7C331.2,119.4,330,114.6,327.7,112.6 M322.8,143.1c-2.9,0-6-1.6-7.8-3.5v24.6c0,0.1,0.2,0.2,0.5,0.2h4.1
			c0.2,0,0.2,1.2,0,1.2H304c-0.1,0-0.1-1.2,0-1.2h4.1c0.4,0,0.6-0.1,0.6-0.2v-52.3c0-0.2-0.2-0.3-0.6-0.3H304c-0.1,0-0.1-1.2,0-1.2
			h10.9c0.2,0,0.2,0.1,0.2,0.2v2.4c1.4-1.7,4.1-3.2,7-3.2c8.7,0,15.7,8.5,15.7,16.8C337.7,135,331.6,143.1,322.8,143.1"/>
		<path class="st2" d="M362.5,112.6c-1.2-1.3-2.8-1.6-4.4-1.6c-2,0-3.9,0.4-5.5,1.6c-2.1,1.8-2.9,4.7-3.2,10.9h15.6
			C365,117.3,364.4,114.4,362.5,112.6 M371.3,124.7h-21.8c0.1,0.5,0.1,1.1,0.1,1.7c0,8.5,0.7,11.8,3.1,13.8c1.6,1.3,3.4,1.6,5.5,1.6
			c5.3,0,9.4-2.7,12-6.6c0.1-0.1,0.7,0.5,0.7,0.6c-2.9,4.3-7.4,7.2-12.7,7.2c-8.8,0-15.4-7.5-15.4-16.7c0-9.2,6.6-16.7,15.4-16.7
			c9.5,0,13.4,9.4,13.4,14.7C371.5,124.6,371.4,124.7,371.3,124.7"/>
		<path class="st2" d="M395.1,119.4c-2.1,0-3.4-1.2-3.4-2.6c0-1.7,0.9-1.9,0.9-3.2c0-1.3-0.8-2-2-2c-2.3,0-4.2,1.6-5.6,7.1v22.2
			c0,0.2,0.2,0.3,0.5,0.3h4.2c0.1,0,0.1,1.2,0,1.2h-15.7c-0.2,0-0.2-1.2,0-1.2h4.1c0.4,0,0.5-0.1,0.5-0.3v-29c0-0.2-0.2-0.3-0.5-0.3
			h-4.1c-0.2,0-0.2-1.2,0-1.2h10.8c0.2,0,0.2,0.1,0.2,0.2v5c1.4-4.4,3.8-5.9,7.7-5.9c3.7,0,5.6,2.5,5.6,5.5
			C398.4,117.9,396.9,119.4,395.1,119.4"/>
		<path class="st2" d="M413.7,143.1c-4.3,0-6.4-2.5-6.4-7.4v-23.8c0-0.2-0.1-0.3-0.5-0.3h-5.2c-0.1,0-0.1-1.2,0-1.2h5.2
			c0.4,0,0.5-0.1,0.5-0.3v-7.9c3.1-0.4,4.6-2.6,5.3-4.7c0-0.1,1.1-0.1,1.1,0v12.6c0,0.2,0.2,0.3,0.5,0.3h6.2c0.1,0,0.1,1.2,0,1.2
			h-6.2c-0.3,0-0.5,0.1-0.5,0.3v27c0,1.4,0.8,2.2,2.1,2.2c2.1,0,3.8-2,4.6-5.1c0.1-0.1,0.8,0.4,0.8,0.5
			C420.2,140.3,418,143.1,413.7,143.1"/>
		<path class="st2" d="M432.8,96.4c-2.3,0-4.1-2-4.1-4.4c0-2.4,1.8-4.4,4.1-4.4c2.3,0,4.2,2,4.2,4.4C437,94.5,435.1,96.4,432.8,96.4
			 M424.9,142.4c-0.2,0-0.2-1.2,0-1.2h4.1c0.5,0,0.5-0.1,0.5-0.3v-29c0-0.2-0.1-0.3-0.5-0.3h-4.1c-0.2,0-0.2-1.2,0-1.2h10.9
			c0.2,0,0.2,0.1,0.2,0.2v30.3c0,0.2,0.2,0.3,0.5,0.3h4.2c0.2,0,0.2,1.2,0,1.2H424.9z"/>
		<path class="st2" d="M463.1,112.6c-1.2-1.3-2.8-1.6-4.4-1.6c-2,0-3.9,0.4-5.5,1.6c-2.1,1.8-2.9,4.7-3.2,10.9h15.6
			C465.6,117.3,465,114.4,463.1,112.6 M471.9,124.7h-21.8c0.1,0.5,0.1,1.1,0.1,1.7c0,8.5,0.7,11.8,3.1,13.8c1.6,1.3,3.5,1.6,5.5,1.6
			c5.3,0,9.4-2.7,12-6.6c0.1-0.1,0.8,0.5,0.7,0.6c-2.8,4.3-7.4,7.2-12.7,7.2c-8.8,0-15.4-7.5-15.4-16.7c0-9.2,6.6-16.7,15.4-16.7
			c9.5,0,13.4,9.4,13.4,14.7C472.1,124.6,472.1,124.7,471.9,124.7"/>
		<path class="st2" d="M488.6,143.1c-4.3,0-5.7-2-7.9-2c-1.4,0-2.5,0.9-2.7,1.4c0,0.2-1.1,0.1-1.1,0l0.4-11.4c0-0.2,1.1-0.2,1.1,0
			c-0.2,5.8,4.4,10.8,10.2,10.8c4.1,0,7.1-2.1,7.1-6.5c0-4.1-3.2-5.1-8.7-6.9c-5.2-1.6-8.7-4-8.7-8.9c0-6.1,4.2-9.8,8.9-9.8
			c3.3,0,3.2,1.1,6.2,1.1c1.1,0,1.6-0.8,1.7-1.2c0-0.1,1.1-0.1,1.1,0v9.2c0,0.2-1.1,0.2-1.1,0c0-4.5-4.2-7.9-7.8-7.9
			c-3.7,0-5.9,2.1-5.9,5.2c0,3.8,2.9,5,8.5,6.7c5.6,1.7,9.5,4.4,9.5,9.6C499.2,138.5,495.8,143.1,488.6,143.1"/>
	</g>
</g>
</svg>
